HIERARCHY
ROOT Hips
{
 OFFSET 0.000000 0.000000 0.000000
 CHANNELS 6 Xposition Yposition Zposition Yrotation Xrotation Zrotation
 JOINT Chest
 {
  OFFSET 0.000000 0.087911 -0.065546
  CHANNELS 3 Yrotation Xrotation Zrotation
  JOINT Chest2
  {
   OFFSET 0.000000 0.074094 -0.000050
   CHANNELS 3 Yrotation Xrotation Zrotation
   JOINT Chest3
   {
    OFFSET 0.000000 0.105900 0.000026
    CHANNELS 3 Yrotation Xrotation Zrotation
    JOINT Chest4
    {
     OFFSET 0.000000 0.109216 0.000029
     CHANNELS 3 Yrotation Xrotation Zrotation
     JOINT Neck
     {
      OFFSET 0.000000 0.176282 -0.000024
      CHANNELS 3 Yrotation Xrotation Zrotation
      JOINT Head
      {
       OFFSET 0.000000 0.090319 0.000000
       CHANNELS 3 Yrotation Xrotation Zrotation
       End Site
       {
        OFFSET 0.000000 0.131706 0.000000
       }
      }
     }
     JOINT RightCollar
     {
      OFFSET -0.028133 0.110139 -0.000012
      CHANNELS 3 Yrotation Xrotation Zrotation
      JOINT RightShoulder
      {
       OFFSET -0.158561 0.000000 0.000000
       CHANNELS 3 Yrotation Xrotation Zrotation
       JOINT RightElbow
       {
        OFFSET -0.265160 0.000000 0.000000
        CHANNELS 3 Yrotation Xrotation Zrotation
        JOINT RightWrist
        {
         OFFSET -0.239129 0.000000 -0.000016
         CHANNELS 3 Yrotation Xrotation Zrotation
         End Site
         {
          OFFSET -0.175082 0.006533 0.000975
         }
        }
       }
      }
     }
     JOINT LeftCollar
     {
      OFFSET 0.028133 0.110139 -0.000012
      CHANNELS 3 Yrotation Xrotation Zrotation
      JOINT LeftShoulder
      {
       OFFSET 0.158561 0.000000 0.000000
       CHANNELS 3 Yrotation Xrotation Zrotation
       JOINT LeftElbow
       {
        OFFSET 0.265160 0.000000 0.000000
        CHANNELS 3 Yrotation Xrotation Zrotation
        JOINT LeftWrist
        {
         OFFSET 0.239129 0.000000 -0.000016
         CHANNELS 3 Yrotation Xrotation Zrotation
         End Site
         {
          OFFSET 0.175082 0.006533 0.000975
         }
        }
       }
      }
     }
    }
   }
  }
 }
 JOINT RightHip
 {
  OFFSET -0.094771 -0.000069 0.000011
  CHANNELS 3 Yrotation Xrotation Zrotation
  JOINT RightKnee
  {
   OFFSET 0.000000 -0.475024 0.000100
   CHANNELS 3 Yrotation Xrotation Zrotation
   JOINT RightAnkle
   {
    OFFSET 0.000000 -0.411622 0.001356
    CHANNELS 3 Yrotation Xrotation Zrotation
    JOINT RightToe
    {
     OFFSET 0.000000 -0.086895 0.180760
     CHANNELS 3 Yrotation Xrotation Zrotation
     End Site
     {
      OFFSET 0.000000 -0.009624 0.045094
     }
    }
   }
  }
 }
 JOINT LeftHip
 {
  OFFSET 0.094771 -0.000091 0.000014
  CHANNELS 3 Yrotation Xrotation Zrotation
  JOINT LeftKnee
  {
   OFFSET 0.000000 -0.475024 0.000100
   CHANNELS 3 Yrotation Xrotation Zrotation
   JOINT LeftAnkle
   {
    OFFSET 0.000000 -0.411622 0.001356
    CHANNELS 3 Yrotation Xrotation Zrotation
    JOINT LeftToe
    {
     OFFSET 0.000000 -0.086895 0.180760
     CHANNELS 3 Yrotation Xrotation Zrotation
     End Site
     {
      OFFSET 0.000000 -0.009624 0.045094
     }
    }
   }
  }
 }
}
MOTION
Frames: 12
Frame Time: 0.004167
0.361207 0.958246 0.815111 34.238962 -1.193909 -4.412133 1.518302 12.591744 1.671159 0.559052 -3.468418 0.741263 0.388438 4.453568 0.573696 0.127986 8.781738 0.161194 -5.383266 7.442738 3.339452 -9.743564 14.042160 5.685958 1.294900 -4.754377 8.664166 7.877887 -18.473415 64.598655 6.923725 -9.514099 -1.825642 5.477846 -1.229957 1.647251 -0.239118 -7.060724 -5.056232 -1.513265 -10.003334 -74.211381 -33.236050 -2.957617 -3.107287 -9.733779 0.511844 10.054360 -15.640428 -20.859659 6.951140 -11.512043 32.794281 -1.534871 -9.742675 -3.553300 -2.245355 -0.000000 -0.000000 0.000000 16.969608 -36.199215 -0.253081 -13.867751 56.397091 3.322367 2.630007 -15.783505 -4.013530 -0.000000 -0.000000 -0.000000
0.362634 0.959314 0.816361 33.497653 -1.207703 -4.403013 1.838523 12.609150 1.718807 0.707295 -3.444757 0.753443 0.492304 4.462900 0.596856 0.158166 8.777877 0.166857 -5.456558 7.415891 3.298030 -9.886157 13.992210 5.602015 1.395084 -4.783577 8.543312 8.496592 -18.754940 64.123288 7.302462 -9.467234 -1.902840 5.488279 -1.162663 1.737172 -0.134021 -7.048495 -5.155665 -1.161826 -9.665474 -74.393966 -32.985471 -3.084994 -3.316502 -10.032094 0.468096 10.096580 -15.373851 -20.655396 6.971477 -11.437180 32.485552 -1.445804 -9.333101 -3.351038 -2.391282 0.000000 0.000000 0.000000 17.385050 -36.001463 -1.333267 -15.095905 54.320245 2.936313 2.390668 -15.185851 -4.298775 0.000000 -0.000000 0.000000
0.364105 0.960343 0.817592 32.750720 -1.216772 -4.370279 2.149862 12.622308 1.752013 0.852572 -3.428058 0.758866 0.594164 4.469896 0.615144 0.187681 8.775701 0.171198 -5.526138 7.390694 3.254371 -10.021932 13.944895 5.514245 1.492058 -4.809222 8.426799 9.102500 -19.037122 63.656198 7.675358 -9.414996 -1.976730 5.503881 -1.101655 1.823680 -0.031329 -7.036556 -5.255863 -0.818527 -9.322787 -74.567988 -32.731419 -3.193043 -3.516111 -10.323636 0.433763 10.141459 -15.112421 -20.469646 6.974022 -11.357254 32.196571 -1.365565 -8.924075 -3.169566 -2.541132 0.000000 0.000000 0.000000 17.656958 -35.816841 -2.278924 -15.996516 52.259665 2.656281 2.108416 -14.522322 -4.520951 -0.000000 0.000000 0.000000
0.365615 0.961326 0.818810 31.999195 -1.220212 -4.311578 2.450650 12.630729 1.768690 0.994274 -3.418882 0.756540 0.693596 4.474293 0.627869 0.216405 8.775256 0.174034 -5.591324 7.368207 3.208160 -10.149626 13.902133 5.422057 1.584005 -4.830677 8.315959 9.690278 -19.323864 63.201772 8.040440 -9.356664 -2.045533 5.525289 -1.049175 1.905341 0.067861 -7.025788 -5.356571 -0.486363 -8.977321 -74.732203 -32.471148 -3.275586 -3.699548 -10.606065 0.409518 10.198554 -14.855512 -20.304682 6.956878 -11.273485 31.930740 -1.295125 -8.517428 -3.013064 -2.694920 -0.000000 -0.000000 -0.000000 17.751704 -35.660086 -3.058746 -16.514733 50.236838 2.465246 1.764016 -13.791400 -4.673900 0.000000 -0.000000 -0.000000
0.367163 0.962259 0.820023 31.244118 -1.217055 -4.224581 2.739219 12.633899 1.766771 1.131806 -3.417809 0.745482 0.790183 4.475815 0.634349 0.244207 8.776581 0.175179 -5.651439 7.349493 3.159074 -10.267995 13.865847 5.324832 1.669102 -4.847328 8.212129 10.254606 -19.619261 62.764424 8.395747 -9.291564 -2.107338 5.553098 -1.007421 1.980663 0.162462 -7.017096 -5.457529 -0.168258 -8.631183 -74.885440 -32.202009 -3.326638 -3.860110 -10.877095 0.395875 10.277532 -14.602513 -20.162807 6.918210 -11.187087 31.691449 -1.235515 -8.114965 -2.885737 -2.852695 -0.000000 0.000000 -0.000000 17.636059 -35.545121 -3.641293 -16.594279 48.271469 2.344682 1.338912 -12.991323 -4.751739 0.000000 0.000000 0.000000
0.368747 0.963138 0.821237 30.486545 -1.206267 -4.106987 3.013913 12.631267 1.744208 1.264580 -3.425440 0.724724 0.883513 4.474169 0.633907 0.270960 8.779713 0.174449 -5.705815 7.335618 3.106780 -10.375819 13.837971 5.221930 1.745523 -4.858576 8.116637 10.790165 -19.927577 62.348605 8.739328 -9.219062 -2.160120 5.587868 -0.978545 2.048098 0.251403 -7.011403 -5.558472 0.132926 -8.286523 -75.026604 -31.921390 -3.340413 -3.990980 -11.134419 0.393190 10.388155 -14.352808 -20.046353 6.856237 -11.099278 31.482081 -1.187827 -7.718464 -2.791810 -3.014524 -0.000000 -0.000000 0.000000 17.276637 -35.484228 -3.994364 -16.176863 46.382537 2.275519 0.815439 -12.120261 -4.748507 -0.000000 -0.000000 0.000000
0.370378 0.963964 0.822421 29.712934 -1.184217 -3.946640 3.279562 12.621677 1.695093 1.395624 -3.443925 0.691632 0.975674 4.468613 0.624841 0.297136 8.785139 0.171234 -5.755324 7.326885 3.050796 -10.474778 13.819133 5.112304 1.815920 -4.862909 8.028920 11.301840 -20.254632 61.948554 9.071703 -9.145186 -2.203153 5.631991 -0.962999 2.108260 0.337629 -7.007323 -5.661368 0.419718 -7.937874 -75.157408 -31.628419 -3.312477 -4.097675 -11.382697 0.408009 10.532623 -14.101755 -19.963252 6.763266 -11.015382 31.302206 -1.157996 -7.315941 -2.733007 -3.188633 0.000000 0.000000 0.000000 16.577329 -35.475341 -4.054235 -15.077717 44.503853 2.259745 0.159889 -11.073609 -4.585752 0.000000 -0.000000 0.000000
0.372065 0.964743 0.823549 28.913605 -1.148518 -3.738601 3.541035 12.604957 1.617952 1.527573 -3.474031 0.645712 1.068465 4.458952 0.606877 0.323159 8.793116 0.165345 -5.801268 7.322303 2.991123 -10.567342 13.807595 4.995863 1.883952 -4.860094 7.947192 11.798767 -20.600277 61.556096 9.395397 -9.074679 -2.237462 5.686148 -0.958561 2.162883 0.424237 -7.003053 -5.767723 0.697071 -7.579693 -75.280385 -31.325841 -3.246931 -4.190429 -11.627203 0.443754 10.702551 -13.847416 -19.916279 6.636763 -10.937287 31.147619 -1.148793 -6.897537 -2.705949 -3.380314 -0.000000 -0.000000 0.000000 15.514216 -35.498133 -3.814473 -13.266624 42.558705 2.281124 -0.627591 -9.776801 -4.228919 0.000000 0.000000 0.000000
0.373803 0.965477 0.824632 28.095416 -1.100130 -3.491395 3.796764 12.581972 1.517415 1.659270 -3.514317 0.589218 1.161050 4.445694 0.581487 0.348834 8.803324 0.157227 -5.843631 7.321000 2.928148 -10.653477 13.801744 4.873393 1.949311 -4.851464 7.870948 12.281883 -20.959917 61.172179 9.711455 -9.005006 -2.263570 5.748342 -0.963319 2.212122 0.510389 -6.998909 -5.876573 0.965813 -7.214033 -75.395740 -31.016366 -3.150935 -4.269572 -11.866467 0.496040 10.891771 -13.593133 -19.900049 6.482718 -10.861136 31.016021 -1.156696 -6.468220 -2.707246 -3.585239 -0.000000 -0.000000 0.000000 14.161469 -35.534371 -3.328185 -10.909717 40.554757 2.299398 -1.512088 -8.275995 -3.733908 0.000000 0.000000 0.000000
0.375589 0.966169 0.825684 27.265220 -1.040265 -3.213517 4.045198 12.553557 1.398137 1.789556 -3.563350 0.524399 1.252596 4.429348 0.550136 0.373966 8.815447 0.147325 -5.882388 7.322103 2.862270 -10.733131 13.799980 4.745701 2.011693 -4.838354 7.799678 12.751982 -21.328948 60.797840 10.020906 -8.933615 -2.281990 5.816614 -0.975358 2.256202 0.595249 -6.995212 -5.986959 1.226777 -6.842928 -75.503698 -30.702625 -3.031643 -4.335633 -12.099035 0.560583 11.093979 -13.342153 -19.909155 6.307089 -10.783148 30.905128 -1.178261 -6.032987 -2.733519 -3.799077 -0.000000 0.000000 -0.000000 12.593715 -35.566145 -2.649714 -8.165713 38.504471 2.282757 -2.459211 -6.620506 -3.152555 -0.000000 0.000000 0.000000
0.377417 0.966821 0.826717 26.429855 -0.970420 -2.913408 4.284804 12.520535 1.264787 1.917263 -3.619700 0.453495 1.342267 4.410415 0.514284 0.398365 8.829166 0.136082 -5.917509 7.324750 2.793894 -10.806230 13.800715 4.613617 2.070804 -4.822097 7.732871 13.209721 -21.702759 60.434196 10.324773 -8.857933 -2.293218 5.889033 -0.992755 2.295412 0.677980 -6.992288 -6.097924 1.480803 -6.468397 -75.604498 -30.387184 -2.896190 -4.389330 -12.323521 0.633206 11.302727 -13.097677 -19.938149 6.115792 -10.699591 30.812690 -1.210089 -5.596874 -2.781402 -4.017505 0.000000 -0.000000 0.000000 10.886609 -35.578025 -1.835164 -5.186460 36.423913 2.208121 -3.436718 -4.862080 -2.533732 0.000000 0.000000 0.000000
0.379283 0.967435 0.827743 25.596126 -0.892395 -2.599450 4.514053 12.483720 1.122044 2.041208 -3.681941 0.378731 1.429221 4.389398 0.475383 0.421840 8.844164 0.123943 -5.948953 7.328082 2.723437 -10.872677 13.802375 4.477994 2.126359 -4.804032 7.670018 13.655618 -22.076726 60.082431 10.624073 -8.775365 -2.297733 5.963692 -1.013586 2.330097 0.757746 -6.990466 -6.208511 1.728728 -6.092440 -75.698386 -30.072571 -2.751683 -4.431569 -12.538644 0.709848 11.511422 -12.862882 -19.981530 5.914689 -10.606771 30.736504 -1.248797 -5.164968 -2.847531 -4.236205 0.000000 0.000000 0.000000 9.116915 -35.558685 -0.942379 -2.117835 34.331433 2.061115 -4.415416 -3.054294 -1.924449 0.000000 0.000000 0.000000
